# xmcd CD database file
#
# Track frame offsets:
#	182
#	6237
#	18467
#	28087
#	38280
#	47272
#	58540
#	68815
#	79525
#	87495
#	95472
#	105380
#	113190
#	121472
#	133012
#	142977
#	150477
#	161045
#
# Disc length: 2288 seconds
#
# Revision: 0
# Processed by: cddbd v1.4PL0 Copyright (c) Steve Scherf et al.
# Submitted via: NeoAudio 9.9.9
#
DISCID=d908ee12
DTITLE=Jim Reeves - The Velvet Voice Of Jim Reeves
DYEAR=1900
DGENRE=Country
TTITLE0=Have I Told You Lately That I Love You
TTITLE1=Four Walls
TTITLE2=I'm Gettin' Better
TTITLE3=Anna Marie
TTITLE4=According To My Heart
TTITLE5=Just Call Me Lonesome
TTITLE6=Dear Hearts And Gentle People
TTITLE7=I Missed Me
TTITLE8=Till The End Of The World
TTITLE9=Roly Polly
TTITLE10=Softly And Tenderly
TTITLE11=I Know One
TTITLE12=Sweet Evening Breeze
TTITLE13=If Heartaches Are The Fashion
TTITLE14=Home
TTITLE15=Blue Boy
TTITLE16=Peace In The Valley
TTITLE17=An Evening Prayer
EXTD=
EXTT0=
EXTT1=
EXTT2=
EXTT3=
EXTT4=
EXTT5=
EXTT6=
EXTT7=
EXTT8=
EXTT9=
EXTT10=
EXTT11=
EXTT12=
EXTT13=
EXTT14=
EXTT15=
EXTT16=
EXTT17=
PLAYORDER=
